<svg width="699" height="169" viewBox="0 0 699 169" fill="none" xmlns="http://www.w3.org/2000/svg">
<path d="M237.994 127.822L232.002 162.778H204.94L213.059 122.801C215.378 111.728 217.505 103.842 219.438 99.1427C221.371 94.3789 223.755 90.6129 226.59 87.8448C229.489 85.0122 233.484 82.5016 238.574 80.3128L210.643 42.9428H242.343L281.486 97.1148C285.545 93.4454 288.638 89.1323 290.764 84.1754C292.89 79.2184 294.404 72.5234 295.306 64.0902L297.336 42.9428H324.011L321.691 65.8283C320.982 72.3303 319.694 78.0919 317.825 83.1132C316.537 86.5251 314.958 89.7438 313.089 92.7695C311.221 95.7308 308.772 98.8852 305.744 102.233C302.78 105.516 298.85 109.346 293.953 113.724L330.003 162.778H298.496L250.268 95.9561C246.853 97.9517 244.405 100.849 242.923 104.647C242.214 106.578 241.441 109.475 240.604 113.337C239.766 117.2 238.896 122.028 237.994 127.822Z" fill="#1B75DF"/>
<path d="M381.323 143.658C378.746 150.289 374.783 155.149 369.435 158.239C364.087 161.265 356.323 162.778 346.143 162.778H339.571V139.41H341.214C345.66 139.41 349.204 138.573 351.845 136.899C354.423 135.225 356.259 132.682 357.354 129.27C358.449 125.794 358.997 120.548 358.997 113.531V66.3111H340.634V42.9428H407.901C426.457 42.9428 439.763 46.8697 447.817 54.7236C455.935 62.513 459.994 75.4525 459.994 93.542V162.778H433.803V93.9283C433.803 83.6282 431.709 76.4503 427.52 72.3946C423.332 68.339 416.277 66.3111 406.355 66.3111H385.092V116.91C385.092 128.047 383.836 136.963 381.323 143.658Z" fill="#1B75DF"/>
<path d="M490.342 140.472C506.063 135.322 518.756 128.82 528.421 120.966C535.122 115.623 540.244 109.797 543.788 103.488C547.332 97.1148 549.103 90.452 549.103 83.4994C549.103 72.0406 541.919 66.3111 527.551 66.3111H478.454V2H505.129V42.9428H531.9C560.895 42.9428 575.392 55.5926 575.392 80.8922C575.392 92.9948 572.524 104.325 566.79 114.882C561.12 125.376 553.002 134.742 542.435 142.982C528.517 153.797 511.153 162.295 490.342 168.475V140.472Z" fill="#1B75DF"/>
<path d="M684.024 66.3111V162.778H657.929V66.3111H592.982V42.9428H698.908V66.3111H684.024Z" fill="#1B75DF"/>
<path fill-rule="evenodd" clip-rule="evenodd" d="M107.809 7.50001C102.036 -2.49999 87.602 -2.50001 81.8285 7.49999L2.032 145.712C-3.7415 155.712 3.47535 168.212 15.0224 168.212H174.615C186.162 168.212 193.379 155.712 187.606 145.712L107.809 7.50001ZM99.3302 47.5005C97.4057 44.167 92.5943 44.167 90.6698 47.5005L43.3298 129.5C41.4054 132.833 43.8111 137 47.66 137H142.34C146.189 137 148.595 132.833 146.67 129.5L99.3302 47.5005Z" fill="#1B75DF"/>
</svg>
