<svg width="1134" height="160" viewBox="0 0 1134 160" fill="none" xmlns="http://www.w3.org/2000/svg">
<path d="M204.066 0.561279L204.066 80L204.066 159.439L179.248 159.439L167.655 103.918L102.174 103.918L36.6932 103.918L25.1005 159.439L0.282178 159.439L0.282181 80L0.282185 0.56127L25.1006 0.561271L36.6932 56.0824L102.174 56.0824L167.655 56.0824L179.248 0.561278L204.066 0.561279Z" fill="#1B75DF"/>
<path d="M37.4913 0.561396L166.857 0.561407L157.044 44.4388L47.4841 44.4388L37.4913 0.561396Z" fill="#ADC1E0"/>
<path d="M37.4913 159.439L166.857 159.439L157.044 115.561L47.4841 115.561L37.4913 159.439Z" fill="#ADC1E0"/>
<path d="M244.163 28.2562V0.561279H374.648V28.2562H326.007V159.439H292.804V28.2562H244.163Z" fill="#1B75DF"/>
<path d="M396.137 159.439V0.561279H429.727V66.1137H497.917V0.561279H531.431V159.439H497.917V93.8086H429.727V159.439H396.137Z" fill="#1B75DF"/>
<path d="M559.125 159.439V0.561279H621.808C633.806 0.561279 644.046 2.70757 652.528 7.00016C661.061 11.241 667.552 17.2662 672 25.0756C676.499 32.8332 678.749 41.9615 678.749 52.4602C678.749 63.0106 676.473 72.0871 671.922 79.6897C667.371 87.2405 660.777 93.0329 652.14 97.0669C643.555 101.101 633.16 103.118 620.954 103.118H578.985V76.1211H615.524C621.937 76.1211 627.264 75.2419 631.505 73.4835C635.746 71.7251 638.9 69.0875 640.969 65.5707C643.089 62.0539 644.15 57.6837 644.15 52.4602C644.15 47.185 643.089 42.7372 640.969 39.117C638.9 35.4967 635.72 32.7557 631.427 30.8938C627.186 28.9803 621.833 28.0235 615.369 28.0235H592.716V159.439H559.125ZM644.925 87.137L684.412 159.439H647.33L608.697 87.137H644.925Z" fill="#1B75DF"/>
<path d="M702.487 159.439V0.561279H809.544V28.2562H736.078V66.1137H804.036V93.8086H736.078V131.744H809.854V159.439H702.487Z" fill="#1B75DF"/>
<path d="M863.634 159.439H827.638L882.485 0.561279H925.773L980.542 159.439H944.547L904.75 36.8672H903.508L863.634 159.439ZM861.384 96.9893H946.408V123.21H861.384V96.9893Z" fill="#1B75DF"/>
<path d="M1055.99 159.439H999.665V0.561279H1056.45C1072.43 0.561279 1086.19 3.74193 1097.72 10.1032C1109.26 16.4128 1118.12 25.4893 1124.33 37.3327C1130.59 49.1761 1133.72 63.3468 1133.72 79.8448C1133.72 96.3945 1130.59 110.617 1124.33 122.512C1118.12 134.407 1109.2 143.535 1097.57 149.897C1085.98 156.258 1072.12 159.439 1055.99 159.439ZM1033.26 130.658H1054.59C1064.52 130.658 1072.87 128.899 1079.65 125.382C1086.47 121.814 1091.59 116.306 1095.01 108.859C1098.47 101.359 1100.2 91.6882 1100.2 79.8448C1100.2 68.1049 1098.47 58.5112 1095.01 51.0638C1091.59 43.6164 1086.5 38.1343 1079.72 34.6175C1072.95 31.1007 1064.6 29.3423 1054.67 29.3423H1033.26V130.658Z" fill="#1B75DF"/>
</svg>
